<?xml version="1.0" encoding="UTF-8" standalone="no"?>
<!-- Created with Inkscape (http://www.inkscape.org/) -->

<svg
   xmlns:dc="http://purl.org/dc/elements/1.1/"
   xmlns:cc="http://creativecommons.org/ns#"
   xmlns:rdf="http://www.w3.org/1999/02/22-rdf-syntax-ns#"
   xmlns:svg="http://www.w3.org/2000/svg"
   xmlns="http://www.w3.org/2000/svg"
   xmlns:sodipodi="http://sodipodi.sourceforge.net/DTD/sodipodi-0.dtd"
   xmlns:inkscape="http://www.inkscape.org/namespaces/inkscape"
   version="1.1"
   id="svg2"
   xml:space="preserve"
   width="1496"
   height="1496"
   viewBox="0 0 1496 1496"
   sodipodi:docname="tech.svg"
   inkscape:version="0.92.4 5da689c313, 2019-01-14"><metadata
     id="metadata8"><rdf:RDF><cc:Work
         rdf:about=""><dc:format>image/svg+xml</dc:format><dc:type
           rdf:resource="http://purl.org/dc/dcmitype/StillImage" /><dc:title></dc:title></cc:Work></rdf:RDF></metadata><defs
     id="defs6" /><sodipodi:namedview
     pagecolor="#ffffff"
     bordercolor="#666666"
     borderopacity="1"
     objecttolerance="10"
     gridtolerance="10"
     guidetolerance="10"
     inkscape:pageopacity="0"
     inkscape:pageshadow="2"
     inkscape:window-width="484"
     inkscape:window-height="1288"
     id="namedview4"
     showgrid="false"
     inkscape:zoom="0.31550802"
     inkscape:cx="635.53648"
     inkscape:cy="857.17943"
     inkscape:window-x="1034"
     inkscape:window-y="74"
     inkscape:window-maximized="0"
     inkscape:current-layer="g10" /><g
     id="g10"
     inkscape:groupmode="layer"
     inkscape:label="ink_ext_XXXXXX"
     transform="matrix(1.3333333,0,0,-1.3333333,0,1496)"><g
       id="g12"
       transform="scale(0.1)"><path
         d="M 11220,0 H 0 V 11220 H 11220 V 0"
         style="fill:#ffffff;fill-opacity:1;fill-rule:nonzero;stroke:none"
         id="path14"
         inkscape:connector-curvature="0" /><path
         d="m 6497.03,4601.53 c -557.05,-489.29 -1406.53,-437.16 -1898.07,122.74 -488.78,559.28 -434.55,1407.74 124.22,1896.65 556.43,491.7 1406.43,437.11 1896.2,-120.69 492.39,-558.93 435.93,-1409.13 -122.35,-1898.7 z m 2111.36,1104.8 c -3.25,115.31 -14.28,229.27 -31.06,340.84 l -593.84,98.39 -201.26,561.82 395.67,453.61 c -120.01,199.68 -262.82,383.46 -424.22,548.8 l -538.4,-270.28 -493.6,335.64 53.36,600.44 c -204.7,86.34 -421.2,151.23 -645.94,190.2 l -279.72,-534.29 -596.99,-14 -306.62,519.52 c -229.47,-52.28 -448.81,-130.14 -654.6,-231.31 l 87.95,-596.31 -474.45,-362.94 -552.85,238.67 c -151.75,-173.68 -284.11,-365.1 -392.86,-571.5 l 420.73,-430.14 -169.48,-572.08 -587.59,-132.37 c -10.56,-118.37 -15.07,-239.36 -11.3,-362.28 4.16,-112.19 14.23,-222.18 29.44,-330.68 l 594.06,-100.09 199.45,-562.46 -398.33,-452.55 c 120.4,-199.81 262.55,-385.6 424.03,-551.41 l 539.45,268.58 492.63,-337.07 -55.84,-600.58 c 211.26,-89.39 434.06,-156.7 665.72,-196.29 l 278.14,535.56 596.92,16.5 307.64,-518.78 c 229.32,53.31 448.3,132.32 653.97,233.93 l -89.68,595.97 472.82,364.99 553.44,-237.16 c 151.8,174.91 283.79,366.63 391.67,572.82 l -423.19,428.44 167.38,573.79 588.01,133.31 c 9.48,116.32 13.45,234.14 9.34,352.75"
         style="fill:#516784;fill-opacity:1;fill-rule:nonzero;stroke:none"
         id="path16"
         inkscape:connector-curvature="0" /><path
         d="m 6781.42,4277.79 c -735.88,-646.59 -1858.1,-574.16 -2504.66,161.98 -648.4,737.49 -575.46,1858.61 160.33,2505.97 736.61,646.68 1859.62,573.32 2506.31,-163.06 646.84,-735.95 574.63,-1858.2 -161.98,-2504.89 z m 306.92,2632.09 c -716.96,816.4 -1961.98,897.73 -2778.63,180.78 -815.75,-717.7 -896.6,-1960.63 -177.76,-2778.25 716.82,-816.13 1960.96,-896.42 2776.8,-179.58 816.65,716.95 896.71,1961.15 179.59,2777.05"
         style="fill:#d8d9da;fill-opacity:1;fill-rule:nonzero;stroke:none"
         id="path18"
         inkscape:connector-curvature="0" /><path
         d="m 4472.38,3464.54 19.67,-13.46 -45.71,-595.45 -10.13,-5.13 c 211.26,-89.39 434.06,-156.7 665.72,-196.29 l -5.45,9.75 283.59,525.81 596.92,16.5 313.55,-508.52 -5.91,-10.26 c 229.32,53.31 448.3,132.32 653.97,233.93 l -9.84,4.23 -79.84,591.74 472.82,364.99 552.86,-227.04 0.58,-10.12 c 151.8,174.91 283.79,366.63 391.67,572.82 l -10.39,-2.79 -412.8,431.23 167.38,573.79 580.37,140.69 7.64,-7.38 c 9.48,116.32 13.45,234.14 9.34,352.75 -3.25,115.31 -14.28,229.27 -31.06,340.84 l -6.32,-8.53 -166.58,30.32 C 7289.06,4460.59 5718.13,3763.52 4472.38,3464.54"
         style="fill:#3e5770;fill-opacity:1;fill-rule:nonzero;stroke:none"
         id="path20"
         inkscape:connector-curvature="0" /><path
         d="m 6908.75,4132.83 c 280.16,245.95 473.57,553.96 577.91,885.43 -109.17,-99.56 -220.16,-193.58 -332.53,-282.35 -95.26,-168.07 -219.37,-323.5 -372.72,-458.12 -334.94,-294.29 -749.91,-439.13 -1163.63,-440.74 -134.62,-56.33 -268.29,-107.41 -400.25,-153.64 582.21,-118.04 1210.92,27.4 1691.22,449.42"
         style="fill:#b1b2b3;fill-opacity:1;fill-rule:nonzero;stroke:none"
         id="path22"
         inkscape:connector-curvature="0" /><path
         d="m 4400.06,7839.53 -57.14,483.11 c 0,0 285.7,150.65 503.89,187.01 0,0 -353.25,-129.87 -446.75,-670.12"
         style="fill:#65829e;fill-opacity:1;fill-rule:nonzero;stroke:none"
         id="path24"
         inkscape:connector-curvature="0" /></g></g></svg>